<svg width="22" height="28" viewBox="0 0 22 28" fill="none" xmlns="http://www.w3.org/2000/svg">
<path d="M10.8657 14.7027C12.4894 14.7012 14.0625 14.1368 15.3168 13.1057C16.5712 12.0746 17.4292 10.6405 17.7448 9.04768C18.0604 7.45488 17.8141 5.80192 17.0477 4.3704C16.2813 2.93887 15.0423 1.81732 13.5418 1.19681C12.0412 0.576297 10.372 0.495205 8.8184 0.967347C7.26479 1.43949 5.92292 2.43566 5.02139 3.78616C4.11985 5.13666 3.71441 6.75795 3.87414 8.37384C4.03387 9.98973 4.74888 11.5003 5.89737 12.6481C6.54936 13.3009 7.32391 13.8185 8.17653 14.1711C9.02914 14.5237 9.94302 14.7043 10.8657 14.7027ZM7.02519 3.84359C7.91362 2.95506 9.08265 2.40208 10.3331 2.27887C11.5835 2.15565 12.838 2.46984 13.8828 3.16788C14.9276 3.86592 15.6979 4.90464 16.0627 6.10703C16.4275 7.30942 16.364 8.60109 15.8832 9.76194C15.4024 10.9228 14.5339 11.881 13.4257 12.4733C12.3176 13.0656 11.0384 13.2553 9.80601 13.0102C8.57366 12.765 7.46444 12.1001 6.66736 11.1288C5.87028 10.1575 5.43466 8.93986 5.43472 7.68336C5.43383 6.97012 5.57388 6.26373 5.84683 5.60478C6.11977 4.94583 6.52023 4.34731 7.02519 3.84359Z" fill="#08367B"/>
<path d="M10.8657 15.8164C4.91725 15.8164 0.0776367 20.6553 0.0776367 26.6038C0.0776367 26.7085 0.0982605 26.8121 0.138331 26.9089C0.178401 27.0056 0.237133 27.0935 0.311173 27.1676C0.385213 27.2416 0.473112 27.3003 0.56985 27.3404C0.666588 27.3805 0.770271 27.4011 0.87498 27.4011H20.8557C21.0672 27.4011 21.27 27.3171 21.4195 27.1676C21.569 27.018 21.653 26.8152 21.653 26.6038C21.653 20.6553 16.8134 15.8164 10.8657 15.8164ZM1.70678 25.8064C2.11178 21.1095 6.06615 17.4111 10.8657 17.4111C15.6652 17.4111 19.6189 21.1095 20.0239 25.8064H1.70678Z" fill="#08367B"/>
</svg>
